<svg width="800" height="800" xmlns="http://www.w3.org/2000/svg">
 <defs>
  <linearGradient y2="0.71899" x2="1" y1="0.24243" x1="0.19531" id="svg_29">
   <stop offset="0" stop-color="#ffaa56"/>
   <stop offset="1" stop-color="#0055a9"/>
  </linearGradient>
  <linearGradient y2="1" x2="1" y1="0.6604" x1="0.64063" id="svg_30">
   <stop offset="0" stop-color="#ffaa56"/>
   <stop offset="1" stop-color="#0055a9"/>
  </linearGradient>
  <linearGradient y2="1" x2="1" y1="0.66821" x1="0.65625" id="svg_32">
   <stop offset="0" stop-color="#ffaa56"/>
   <stop offset="1" stop-color="#0055a9"/>
  </linearGradient>
  <radialGradient r="1.16247" cy="0.00024" cx="0.47656" spreadMethod="pad" id="svg_39">
   <stop offset="0.25391" stop-color="#ffd4aa"/>
   <stop offset="1" stop-color="#002b55"/>
  </radialGradient>
 </defs>
 <g>
  <title>background</title>
  <rect fill="none" id="canvas_background" height="802" width="802" y="-1" x="-1"/>
 </g>
 <g>
  <title>Layer 1</title>
  <path stroke="null" id="svg_3" fill-rule="evenodd" fill="url(#svg_30)" d="m462.50001,456.41213c41.7975,-25.935 74.105,-73.6775 83.74,-123.7475l0.88,-4.375c0.83,-3.8325 2.065,-12.4975 2.75,-17.375c0.495,-3.5175 0.82,-9.7475 1.12,-13c0.7825,-8.5 0.4425,-23.8225 -0.7425,-33.375c-1.12,-9.035 -1.3575,-10.545 -2.775,-17.625c-1.7425,-8.7125 -3.055,-13.7275 -6.275,-24c-4.18,-13.335 -12.0825,-30.6875 -19.015,-41.75l-8.5225,-12.6225l-2.5175,-3.2525c-21.68,-27.97 -52.5525,-49.4125 -87.6425,-60.87c-6.14,-2.0025 -6.51,-2.225 -8.125,-2.5975c-1.2425,-0.2875 -11.55,-2.905 -14.75,-3.5175l-4.07,-0.79c-5.94,-1.1875 -21.3275,-2.775 -23.18,-3.0925c-4.25,-0.7325 -141.7925,-1.43 -144.395,-0.7325c-0.3575,0.0975 -0.4,8.85 -0.455,95.415c-0.0475,72.64 -0.1325,95.4575 -0.3575,95.93c-0.565,1.1875 -12.7575,11.37 -17.65,15.755l-71.135,62.875c-5.37,4.8625 -5.665,5.035 -6.01,3.535l-0.2225,-109.66c-0.1125,-122.2 0.015,-113.9275 -1.9325,-123.5c-4.4775,-21.99 -18.58,-39.41 -37.9525,-46.8825c-3.6075,-1.3925 -11.5675,-3.615 -12.9525,-3.6175c-1.2625,0 -2.0625,-1.9725 -1.25,-3.08c0.3475,-0.4725 303.0625,-0.645 314.6875,-0.1775c15.1525,0.6075 24.2375,1.62 28,1.8875c2.7125,0.1925 11,1.3275 14.25,1.755l12.3625,2.01c26.905,4.4975 58.0475,15.3375 82.5125,28.7225c10.4,5.6875 23.45,14.265 30.625,20.1275c35.9975,29.4 56.61,61.8725 66.98,105.505c1.525,6.4175 2.5075,14.4475 3.0475,16.55l1.205,10.325c0.915,9.405 0.86,33.5575 -0.08,35.08l-0.3875,3.1725c-2.0325,21.7175 -10.88,49.6 -21.655,68.2475c-4.81,8.3275 -5.445,9.3525 -8.98,14.5c-15.6225,22.7625 -37.0175,41.455 -63.88,55.8075c-5.6775,3.0325 -7.9325,4.12 -16.125,7.7725c-7.8875,3.515 -23.3075,8.9425 -31.75,11.1725c-8.3725,2.2125 -17.8075,4.3725 -19.0925,4.3725l-1.7975,-0.83c-11.725,-7.15 -11.5625,-6.8975 -6.485,-10.0475z"/>
  <path stroke="null" id="svg_4" fill-rule="evenodd" fill="url(#svg_29)" d="m636.00001,732.87213c-24.415,-0.6525 -62.7375,-7.98 -89.125,-17.0425c-77.695,-26.6825 -138.9,-69.655 -158.9975,-111.6275c-2.9,-6.055 -4.2425,-10.5925 -5.6075,-18.9425c-1.3575,-8.3075 1.1175,-18.2125 5.9725,-23.8975c2.495,-2.92 3.8725,-3.895 8.5225,-6.0175c11.605,-5.3025 14.53,-18.6525 7.07,-32.25c-13.57,-24.73 -44.94,-46.8775 -94.085,-66.4275c-7.5525,-3.005 -11.415,-4.45 -18.75,-7.0075c-18.32,-6.3925 -42.2225,-13.0975 -60.5,-16.97l-9.375,-2.0375c-2.94,-0.695 -15.8925,-3.1275 -19.25,-3.6175l-17.8975,-2.72l-12.6025,-1.6375c-3.775,-0.4575 -9.2875,-0.8275 -9.8375,-1.02c-0.5225,-0.1875 -10.04,-0.8125 -14.7875,-1.245c-4.7775,-0.435 -13.4225,-0.8 -13.9925,-1.0125c-0.99,-0.37 -17.575,-0.7225 -34.5075,-0.7375l-19.1875,-0.2075c-0.8575,-0.5325 0.0275,-1.265 2.1125,-1.7525c11.4875,-2.6925 22.46,-4.51 29.45,-5.68l14.5,-1.8425c24.0775,-2.7775 67.325,-3.015 94.625,-0.5175c4.9375,0.45 10.67,0.8 12.875,1.1225c3.99,0.5825 10.44,0.9625 16.125,1.89c3.135,0.51 8.115,1.03 15.125,2.2125l25,4.4975l16.75,3.5075c7.9425,1.7425 23.4925,5.8675 36.375,9.6525c11.005,3.2325 35.145,11.77 45,15.915c42.6475,17.9425 78.5325,40.4925 109.75,68.9675c8.2825,7.555 23.715,23.255 29.39,29.9025l14.2025,16.44c6.0075,7.05 19.5,23.5275 25.4075,31.025l19.33,24.12l11.695,14.145c31.65,37.7375 57.325,59.5375 88.405,75.065c6.945,3.47 17.6275,7.8 21.445,8.695c2.1575,0.505 9.525,3.015 15,3.995c7.5775,1.36 8.005,2.3325 1.75,3.9825c-20.415,5.3825 -35.07,7.7375 -56,9c-2.935,0.1775 -25.535,0.2325 -31.375,0.075z"/>
  <path stroke="null" id="svg_5" fill-rule="evenodd" fill="url(#svg_32)" d="m79.39251,720.90963c-0.7025,-0.3475 -0.8275,-1.8425 -0.2175,-2.57c0.355,-0.42 1.08,-0.6425 3.4025,-1.04c26.5875,-4.5425 44.095,-23.8325 49.02,-54.01c1.6025,-9.83 1.495,-2.005 1.6425,-117.5725c0.12,-92.9025 0.1775,-104.975 0.51,-105.2025c1.1375,-0.775 12.6275,1.3975 14.875,1.6625l12,1.9875c8.645,1.295 26.03,5.2325 39.375,8.915c7.61,2.1 26.9425,8.625 28.4175,9.59l0.5725,0.375l0.1,88.685c0.065,57.1675 0.19,89.3075 0.35,90.435l0.525,4.625c3.3475,34.85 24.8825,60.565 57.4525,68.6075c5.74,1.4175 7.755,1.87 9.06,2.0325c2.105,0.2625 3.2025,1.845 2.21,3.1875c-0.375,0.5075 -218.275,0.7975 -219.295,0.2925z"/>
  <path stroke="null" id="svg_6" fill-rule="evenodd" fill="url(#svg_39)" d="m445.94543,447.50463c-14.135,-8.2275 -38.78,-19.0725 -58.245,-25.63c-17.46,-5.88 -43.1925,-12.7675 -53.25,-15.2075c-6.835,-1.655 -18.7875,-3.7875 -24.75,-5.13c-2.8175,-0.6325 -13.105,-2.2325 -16.5,-2.8675c-10.07,-1.875 -18.4825,-2.775 -24,-3.4l-15.875,-1.75c-5.7975,-0.7025 -18.9425,-1.53 -30.375,-2.2675c-6.2175,-0.4 -37.1825,-0.415 -45.875,-0.0225c-9.335,0.425 -18.2475,1.0025 -20.42,1.325c-3.3925,0.5025 -5.0325,0.2675 -23.28,2.63c-7.8775,1.0225 -9.05,1.0975 -9.05,0.5875c0,-0.5225 1.805,-2.1725 5.085,-4.65c5.63,-4.2525 4.505,-3.7475 16.415,-12.6425l20.3375,-15.425c5.445,-4.19 15.005,-11.24 17.86,-13.165c5.1,-3.4425 6.3525,-3.115 19.1775,5c3.6775,2.3275 6.61,3.6975 10.25,6.2425c4.54,3.1775 5.46,2.96 1.75,-0.4125c-8.2475,-7.4975 -8.9025,-5.3825 5.97,-19.305l64.155,-60.4725c7.4375,-6.9675 5.8375,-5.84 26.3975,12.7225l72.1725,66.3675c2.8125,2.7025 3.1875,2.9475 3.1725,2.07c-0.0075,-0.6175 -3.9825,-5.0575 -6.6675,-9.3425l-4.9275,-7.6875c-5.755,-8.805 -6.0275,-5.4825 11.3025,-19.1425c8.89,-7.01 8.895,-7.01 17.1375,0.0975c17.8775,15.41 17.265,15.06 27.5375,24.0225l28.515,24.615c17.29,14.7475 14.98,14.965 21.985,13.19c7.5875,-1.9225 9.3325,-1.365 18.3225,5.8525c5.2325,4.2 5.015,3.31 1.8625,7.62l-3.6725,5.0875c-10.5325,14.95 -29.0025,31.9575 -45.4225,41.8275c-2.8375,1.705 -2.915,1.6975 -7.095,-0.7375z"/>
 </g>
</svg>